<mxfile host="app.diagrams.net" agent="Mozilla/5.0 (Windows NT 10.0; Win64; x64) AppleWebKit/537.36 (KHTML, like Gecko) Chrome/133.0.0.0 Safari/537.36" version="26.1.0">
  <diagram name="ページ1" id="twq5-GwQIeONvzpRS7kc">
    <mxGraphModel dx="1687" dy="878" grid="1" gridSize="10" guides="1" tooltips="1" connect="1" arrows="1" fold="1" page="1" pageScale="1" pageWidth="1200" pageHeight="1920" math="0" shadow="1">
      <root>
        <mxCell id="0" />
        <mxCell id="1" parent="0" />
        <mxCell id="RW-OoPy1cdD4TAcShxBw-2" value="" style="rounded=0;whiteSpace=wrap;html=1;fillColor=none;strokeWidth=1;" parent="1" vertex="1">
          <mxGeometry x="260" y="530" width="320" height="160" as="geometry" />
        </mxCell>
        <mxCell id="RW-OoPy1cdD4TAcShxBw-4" value="Vercel" style="text;align=center;verticalAlign=middle;rounded=0;fontFamily=Helvetica;shadow=0;strokeWidth=1;fillStyle=auto;fillColor=#E6E6E6;whiteSpace=wrap;html=1;labelBackgroundColor=none;labelBorderColor=none;textShadow=0;direction=west;glass=0;imageAspect=1;" parent="1" vertex="1">
          <mxGeometry x="261" y="531" width="60" height="20" as="geometry" />
        </mxCell>
      </root>
    </mxGraphModel>
  </diagram>
</mxfile>
